<svg xmlns="http://www.w3.org/2000/svg" viewBox="0 0 606 178"><g transform="translate(52.1,19.0)"><path d="M 100.92 46.00 L 105.12 16.00 L 39.12 16.00 L 22.12 66.00 L 94.12 66.00 L 76.00 124.00 L 10.00 124.00 L 14.20 94.00" fill="none" stroke="#ffffff" stroke-width="26.0" stroke-linejoin="miter" stroke-linecap="butt" stroke-miterlimit="12"/><path d="M 132.00 124.00 L 183.12 16.00 L 199.12 16.00 L 220.00 124.00" fill="none" stroke="#ffffff" stroke-width="26.0" stroke-linejoin="miter" stroke-linecap="butt" stroke-miterlimit="12"/><path d="M 157.76 90.00 L 203.76 90.00" fill="none" stroke="#ffffff" stroke-width="26.0" stroke-linejoin="miter" stroke-linecap="butt" stroke-miterlimit="12"/><path d="M 287.12 16.00 L 272.00 124.00" fill="none" stroke="#ffffff" stroke-width="26.0" stroke-linejoin="miter" stroke-linecap="butt" stroke-miterlimit="12"/><path d="M 274.12 16.00 L 341.12 16.00 L 358.32 36.00 L 356.36 50.00 L 333.56 70.00 L 266.56 70.00" fill="none" stroke="#ffffff" stroke-width="26.0" stroke-linejoin="miter" stroke-linecap="butt" stroke-miterlimit="12"/><path d="M 266.56 70.00 L 337.56 70.00 L 354.76 90.00 L 352.80 104.00 L 330.00 124.00 L 259.00 124.00" fill="none" stroke="#ffffff" stroke-width="26.0" stroke-linejoin="miter" stroke-linecap="butt" stroke-miterlimit="12"/><path d="M 424.12 16.00 L 409.00 124.00" fill="none" stroke="#ffffff" stroke-width="26.0" stroke-linejoin="miter" stroke-linecap="butt" stroke-miterlimit="12"/><path d="M 411.12 16.00 L 478.12 16.00 L 495.32 36.00 L 493.36 50.00 L 470.56 70.00 L 403.56 70.00" fill="none" stroke="#ffffff" stroke-width="26.0" stroke-linejoin="miter" stroke-linecap="butt" stroke-miterlimit="12"/><path d="M 456.56 70.00 L 489.00 124.00" fill="none" stroke="#ffffff" stroke-width="26.0" stroke-linejoin="miter" stroke-linecap="butt" stroke-miterlimit="12"/></g></svg>